<svg xmlns="http://www.w3.org/2000/svg" viewBox="0 0 32 32">
    <rect width="32" height="32" rx="7" fill="#0f2419" />
    <path
        d="M18.5771 23.1163C19.0543 26.5168 21.2572 25.323 21.2572 26.77C21.2572 27.2403 20.8166 27.4574 20.2659 27.4574C19.2746 27.4574 18.5404 27.3488 17.0718 27.3488C15.5298 27.3488 14.9057 27.4574 13.9144 27.4574C13.2536 27.4574 12.8497 27.1318 12.8497 26.6977C12.8497 25.3953 15.3096 26.2636 15.3096 24.0568C15.3096 23.7674 15.2728 23.4057 15.2361 23.1163L14.355 16.8217C14.0613 14.9767 13.3637 11.938 10.5001 11.938C8.29727 11.938 5.91088 13.6744 5.91088 17.3643V23.478C5.91088 26.4083 8.26055 25.3592 8.26055 26.7338C8.26055 27.0594 8.04027 27.4574 7.48957 27.4574C6.68187 27.4574 5.58046 27.3488 4.25877 27.3488C2.9738 27.3488 1.94582 27.4574 1.13812 27.4574C0.550703 27.4574 0.293708 27.0594 0.293708 26.7338C0.293708 25.3592 2.60666 26.4083 2.60666 23.478V5.31783C2.60666 3.07494 0 4.30491 0 2.89406C0 2.31525 0.624131 1.88114 2.56995 0.976744C4.44234 0.108528 4.80948 0 5.21333 0C5.72732 0 5.91088 0.434109 5.91088 0.940569V12.6977C7.08572 10.8165 8.99482 9.18863 11.7851 9.18863C16.2274 9.18863 17.2554 13.385 17.6592 16.3514L18.5771 23.1163Z"
        fill="#f5f0e8"
        transform="translate(5.5 3) scale(0.78)"
    />
</svg>
