<svg width="169" height="24" viewBox="0 0 169 24" fill="none" xmlns="http://www.w3.org/2000/svg">
<path d="M15.6976 19.814C16.1009 22.7287 17.9623 21.7054 17.9623 22.9457C17.9623 23.3488 17.59 23.5349 17.1247 23.5349C16.2871 23.5349 15.6666 23.4419 14.4257 23.4419C13.1227 23.4419 12.5953 23.5349 11.7577 23.5349C11.1993 23.5349 10.858 23.2558 10.858 22.8837C10.858 21.7674 12.9366 22.5116 12.9366 20.6202C12.9366 20.3721 12.9056 20.062 12.8745 19.814L12.13 14.4186C11.8818 12.8372 11.2924 10.2326 8.87257 10.2326C7.01119 10.2326 4.9947 11.7209 4.9947 14.8837V20.124C4.9947 22.6357 6.98017 21.7364 6.98017 22.9147C6.98017 23.1938 6.79403 23.5349 6.32868 23.5349C5.64618 23.5349 4.71549 23.4419 3.59866 23.4419C2.51286 23.4419 1.64422 23.5349 0.961712 23.5349C0.465344 23.5349 0.248184 23.1938 0.248184 22.9147C0.248184 21.7364 2.20263 22.6357 2.20263 20.124V4.55814C2.20263 2.63566 0 3.68992 0 2.48062C0 1.9845 0.52739 1.6124 2.17161 0.83721C3.75378 0.0930239 4.06401 0 4.40526 0C4.83958 0 4.9947 0.372094 4.9947 0.806202V10.8837C5.98743 9.27132 7.60063 7.87597 9.95837 7.87597C13.7121 7.87597 14.5808 11.4729 14.922 14.0155L15.6976 19.814Z" fill="#F5F0E8"/>
<path d="M27.0414 24C22.2948 24 18.9754 20.6512 18.9754 15.938C18.9754 11.1628 22.543 7.62791 27.4136 7.62791C32.1601 7.62791 35.4796 10.9767 35.4796 15.7519C35.4796 20.4961 31.8809 24 27.0414 24ZM27.6928 22.3256C30.64 22.3256 32.4704 19.938 32.4704 16.8372C32.4704 12.9302 30.1437 9.33333 26.7622 9.33333C23.815 9.33333 21.9846 11.6899 21.9846 14.8217C21.9846 18.6977 24.3113 22.3256 27.6928 22.3256Z" fill="#F5F0E8"/>
<path d="M53.1816 19.814C53.5539 22.7287 55.4463 21.7054 55.4463 22.9147C55.4463 23.3488 55.074 23.5349 54.5776 23.5349C53.771 23.5349 53.1196 23.4419 51.8786 23.4419C50.6067 23.4419 50.0483 23.5349 49.2107 23.5349C48.6522 23.5349 48.342 23.2558 48.342 22.8837C48.342 21.7674 50.4205 22.5116 50.4205 20.5891C50.4205 20.3411 50.3585 19.969 50.3275 19.6589L49.5829 14.4186C49.3347 12.8372 48.7763 10.2326 46.3255 10.2326C44.4641 10.2326 42.4476 11.7209 42.4476 14.8837V20.124C42.4476 22.6357 44.4641 21.7364 44.4641 22.9147C44.4641 23.1938 44.247 23.5349 43.7816 23.5349C43.0991 23.5349 42.1684 23.4419 41.0516 23.4419C39.9658 23.4419 39.0972 23.5349 38.4457 23.5349C37.9183 23.5349 37.7011 23.1938 37.7011 22.9147C37.7011 21.7364 39.6556 22.6357 39.6556 20.124V12.5271C39.6556 10.6047 37.453 11.6589 37.453 10.4496C37.453 9.95349 38.0114 9.6124 39.6246 8.83721C41.2067 8.06202 41.548 7.96899 41.7962 7.96899C42.2925 7.96899 42.4476 8.37209 42.4476 9.05426V10.8837C43.4404 9.27132 45.0536 7.87597 47.4423 7.87597C51.1341 7.87597 52.0337 11.4729 52.375 14.0155L53.1816 19.814Z" fill="#F5F0E8"/>
<path d="M70.4427 19.5039C70.784 19.5039 71.0632 19.814 71.0632 20.2171C71.0632 20.4031 70.9701 20.6512 70.784 20.9612C69.6361 22.6047 66.9371 24 64.2381 24C60.019 24 56.4514 21.0543 56.4514 15.876C56.4514 11.0078 60.019 7.62791 64.083 7.62791C67.8988 7.62791 70.4427 10.5426 70.4427 13.5814C70.4427 14.2326 70.2566 14.4186 69.7912 14.5736L59.8329 17.5504C60.6705 20.093 62.687 21.8915 65.2619 21.8915C67.0922 21.8915 68.6434 21.0853 69.6361 19.969C69.9464 19.6589 70.1945 19.5039 70.4427 19.5039ZM63.6797 9.42636C61.2289 9.42636 59.3675 11.5349 59.3675 14.7287C59.3675 15.1628 59.3985 15.5659 59.4606 15.969L66.6269 13.7364C67.1853 13.5814 67.3404 13.4264 67.3404 12.8992C67.3404 11.3488 65.8823 9.42636 63.6797 9.42636Z" fill="#F5F0E8"/>
<path d="M75.5079 23.876C75.0116 23.876 74.7634 23.3488 74.5462 22.8837L73.6155 20.8992C73.0571 19.7519 72.7779 19.3178 72.7779 18.9147C72.7779 18.4806 73.0261 18.2636 73.3984 18.2636C73.7086 18.2636 74.0499 18.5426 74.3601 18.8527C76.3456 20.8372 78.5172 22.2016 80.8129 22.2016C82.8604 22.2016 84.1323 21.0543 84.1323 19.6279C84.1323 17.8915 82.4261 17.5194 79.603 16.8682C76.5938 16.124 73.2123 15.1628 73.2123 12.093C73.2123 9.73643 75.2908 7.87597 78.4241 7.87597C80.1614 7.87597 81.4954 8.43411 81.9917 8.43411C82.5191 8.43411 82.5191 7.81395 83.1086 7.81395C83.636 7.81395 83.9152 8.27907 84.2564 8.86822L85.2802 10.5426C85.6214 11.1008 85.9627 11.7519 85.9627 12.093C85.9627 12.4651 85.6835 12.7132 85.3732 12.7132C85.063 12.7132 84.7218 12.4031 84.4115 12.124C82.8294 10.6667 80.7198 9.45736 78.7033 9.45736C77.0591 9.45736 76.0353 10.2946 76.0353 11.4419C76.0353 13.0233 77.4934 13.3643 80.5647 14.1085C83.7911 14.9147 86.9554 15.845 86.9554 19.1628C86.9554 21.9845 84.4426 23.7829 80.8749 23.7829C78.7654 23.7829 77.3383 23.1008 76.8419 23.1008C76.2525 23.1008 76.1904 23.876 75.5079 23.876Z" fill="#F5F0E8"/>
<path d="M99.2895 20.155C99.6617 20.155 99.9099 20.4651 99.9099 20.8372C99.9099 21.2093 99.6928 21.6124 99.2895 22.0465C98.1726 23.2248 96.6525 23.7829 94.9773 23.7829C92.5885 23.7829 90.9133 22.4496 90.9133 20.8682C90.9133 20.2171 90.9753 17.8295 90.9753 15.6899V9.86047H88.9588C88.4004 9.86047 88.0592 9.6124 88.0592 9.14729C88.0592 8.74419 88.3694 8.49612 88.8658 8.27907C90.7271 7.50388 91.5648 6.3876 92.2783 3.56589C92.5575 2.75969 92.7436 2.3876 93.209 2.3876C93.5502 2.3876 93.7674 2.63566 93.7674 3.1938V8.21705H99.0723C99.4136 8.21705 99.5997 8.37209 99.5997 8.65116C99.5997 8.86822 99.5377 9.1783 99.5066 9.36434C99.4446 9.70543 99.2584 9.86047 98.9482 9.86047H93.7674V18.8527C93.7674 21.1473 94.667 21.8295 95.939 21.8295C97.2109 21.8295 97.9245 21.0853 98.5449 20.5581C98.7311 20.3721 99.0103 20.155 99.2895 20.155Z" fill="#F5F0E8"/>
<path d="M116.402 24C112.369 24 108.894 21.1783 108.894 16.031C108.894 11.0388 112.4 7.65892 116.681 7.65892C119.814 7.65892 122.389 9.51938 122.389 10.7907C122.389 11.3798 122.079 12.3411 121.117 13.5194C120.807 13.8605 120.59 14.0775 120.28 14.0775C119.876 14.0775 119.659 13.7364 119.566 13.1473C119.163 10.9147 118.387 9.2093 116.123 9.2093C113.672 9.2093 111.872 11.5349 111.872 15.0698C111.872 19.0078 114.385 21.8605 117.519 21.8605C119.132 21.8605 120.528 21.1783 121.552 19.876C121.831 19.5349 122.048 19.4109 122.296 19.4109C122.637 19.4109 122.886 19.6589 122.886 20.093C122.886 20.3411 122.761 20.6202 122.606 20.8992C121.676 22.5426 119.225 24 116.402 24Z" fill="#F5F0E8"/>
<path d="M125.084 23.5349C124.587 23.5349 124.37 23.1938 124.37 22.9147C124.37 21.7364 126.325 22.6357 126.325 20.124V4.55814C126.325 2.63566 124.122 3.68992 124.122 2.48062C124.122 1.9845 124.65 1.6124 126.294 0.83721C127.876 0.0930239 128.186 0 128.465 0C128.962 0 129.117 0.403101 129.117 1.08527V20.124C129.117 22.6357 131.102 21.7364 131.102 22.9147C131.102 23.1938 130.916 23.5349 130.451 23.5349C129.768 23.5349 128.838 23.4419 127.721 23.4419C126.635 23.4419 125.766 23.5349 125.084 23.5349Z" fill="#F5F0E8"/>
<path d="M148.055 19.4419C148.055 21.3333 150.599 20.8682 150.599 21.8915C150.599 22.4806 150.041 22.7907 148.086 23.2558C146.721 23.5969 146.225 23.6899 145.915 23.6899C145.356 23.6899 145.263 23.1318 145.263 22.6357V20.8372C144.27 22.4496 142.688 23.814 140.02 23.814C136.515 23.814 134.839 21.4574 134.839 17.7984V12.4341C134.839 10.5736 132.358 11.2868 132.358 10.1705C132.358 9.6124 132.885 9.30233 134.715 8.62016C136.297 8.03101 136.701 7.96899 136.918 7.96899C137.569 7.96899 137.631 8.58915 137.631 9.08527V17.3643C137.631 19.845 138.314 21.5504 140.951 21.5504C143.091 21.5504 145.263 19.969 145.263 16.8372V12.4341C145.263 10.5736 142.533 11.3488 142.533 10.1705C142.533 9.64341 143.091 9.33333 145.139 8.58915C146.628 8.06202 147.155 7.96899 147.404 7.96899C147.962 7.96899 148.055 8.52713 148.055 9.08527V19.4419Z" fill="#F5F0E8"/>
<path d="M161.989 7.78295C166.115 7.78295 169 10.8837 169 15.5659C169 20.6202 165.432 23.845 161.182 23.845C158.669 23.845 157.397 22.8527 156.467 22.8527C155.567 22.8527 154.76 23.7519 154.171 23.7519C153.737 23.7519 153.489 23.4109 153.489 22.9457V4.55814C153.489 2.63566 151.1 3.68992 151.1 2.48062C151.1 1.9845 151.627 1.6124 153.333 0.83721C154.885 0.0930239 155.288 0 155.66 0C156.094 0 156.281 0.403101 156.281 0.806202V10.7597C157.459 9.05426 159.383 7.78295 161.989 7.78295ZM161.182 22.2016C163.881 22.2016 166.053 20.3721 166.053 16.5581C166.053 12.8062 163.974 9.92248 160.934 9.92248C158.545 9.92248 156.281 11.6899 156.281 14.9147V17.1783C156.281 20.2791 158.359 22.2016 161.182 22.2016Z" fill="#F5F0E8"/>
</svg>
