<svg width="200" height="28" viewBox="0 0 200 28" fill="none" xmlns="http://www.w3.org/2000/svg">
<path d="M18.5771 23.1163C19.0543 26.5168 21.2572 25.323 21.2572 26.77C21.2572 27.2403 20.8166 27.4574 20.2659 27.4574C19.2746 27.4574 18.5404 27.3488 17.0718 27.3488C15.5298 27.3488 14.9057 27.4574 13.9144 27.4574C13.2536 27.4574 12.8497 27.1318 12.8497 26.6977C12.8497 25.3953 15.3096 26.2636 15.3096 24.0568C15.3096 23.7674 15.2728 23.4057 15.2361 23.1163L14.355 16.8217C14.0613 14.9767 13.3637 11.938 10.5001 11.938C8.29727 11.938 5.91088 13.6744 5.91088 17.3643V23.478C5.91088 26.4083 8.26055 25.3592 8.26055 26.7338C8.26055 27.0594 8.04027 27.4574 7.48957 27.4574C6.68187 27.4574 5.58046 27.3488 4.25877 27.3488C2.9738 27.3488 1.94582 27.4574 1.13812 27.4574C0.550703 27.4574 0.293708 27.0594 0.293708 26.7338C0.293708 25.3592 2.60666 26.4083 2.60666 23.478V5.31783C2.60666 3.07494 0 4.30491 0 2.89406C0 2.31525 0.624131 1.88114 2.56995 0.976744C4.44234 0.108528 4.80948 0 5.21333 0C5.72732 0 5.91088 0.434109 5.91088 0.940569V12.6977C7.08572 10.8165 8.99482 9.18863 11.7851 9.18863C16.2274 9.18863 17.2554 13.385 17.6592 16.3514L18.5771 23.1163Z" fill="#1A3A2E"/>
<path d="M32.0016 28C26.3844 28 22.4561 24.093 22.4561 18.5943C22.4561 13.0233 26.6781 8.89922 32.4422 8.89922C38.0593 8.89922 41.9877 12.8062 41.9877 18.3773C41.9877 23.9121 37.7289 28 32.0016 28ZM32.7726 26.0465C36.2604 26.0465 38.4265 23.261 38.4265 19.6434C38.4265 15.0853 35.673 10.8889 31.6712 10.8889C28.1834 10.8889 26.0173 13.6382 26.0173 17.292C26.0173 21.814 28.7708 26.0465 32.7726 26.0465Z" fill="#1A3A2E"/>
<path d="M62.9368 23.1163C63.3774 26.5168 65.6169 25.323 65.6169 26.7338C65.6169 27.2403 65.1763 27.4574 64.5889 27.4574C63.6344 27.4574 62.8634 27.3488 61.3948 27.3488C59.8896 27.3488 59.2287 27.4574 58.2375 27.4574C57.5766 27.4574 57.2095 27.1318 57.2095 26.6977C57.2095 25.3953 59.6693 26.2636 59.6693 24.0207C59.6693 23.7313 59.5959 23.2972 59.5592 22.9354L58.678 16.8217C58.3843 14.9767 57.7235 11.938 54.8231 11.938C52.6203 11.938 50.2339 13.6744 50.2339 17.3643V23.478C50.2339 26.4083 52.6203 25.3592 52.6203 26.7338C52.6203 27.0594 52.3633 27.4574 51.8126 27.4574C51.0049 27.4574 49.9035 27.3488 48.5818 27.3488C47.2968 27.3488 46.2688 27.4574 45.4979 27.4574C44.8737 27.4574 44.6167 27.0594 44.6167 26.7338C44.6167 25.3592 46.9297 26.4083 46.9297 23.478V14.615C46.9297 12.3721 44.323 13.6021 44.323 12.1912C44.323 11.6124 44.9839 11.2145 46.893 10.3101C48.7654 9.40568 49.1692 9.29716 49.4629 9.29716C50.0503 9.29716 50.2339 9.76744 50.2339 10.5633V12.6977C51.4087 10.8165 53.3178 9.18863 56.1448 9.18863C60.5137 9.18863 61.5784 13.385 61.9822 16.3514L62.9368 23.1163Z" fill="#1A3A2E"/>
<path d="M83.3642 22.7545C83.768 22.7545 84.0984 23.1163 84.0984 23.5866C84.0984 23.8036 83.9883 24.093 83.768 24.4548C82.4096 26.3721 79.2155 28 76.0215 28C71.0284 28 66.8063 24.5633 66.8063 18.522C66.8063 12.8424 71.0284 8.89922 75.8379 8.89922C80.3537 8.89922 83.3642 12.2997 83.3642 15.845C83.3642 16.6047 83.1439 16.8217 82.5932 17.0026L70.8081 20.4755C71.7994 23.4419 74.1858 25.5401 77.233 25.5401C79.3991 25.5401 81.2348 24.5995 82.4096 23.2972C82.7768 22.9354 83.0705 22.7545 83.3642 22.7545ZM75.3606 10.9974C72.4602 10.9974 70.2574 13.4574 70.2574 17.1835C70.2574 17.6899 70.2941 18.1602 70.3676 18.6305L78.8484 16.0258C79.5092 15.845 79.6928 15.6641 79.6928 15.0491C79.6928 13.2403 77.9673 10.9974 75.3606 10.9974Z" fill="#1A3A2E"/>
<path d="M89.3585 27.8553C88.7711 27.8553 88.4774 27.2403 88.2204 26.6977L87.119 24.3824C86.4581 23.0439 86.1277 22.5375 86.1277 22.0672C86.1277 21.5607 86.4214 21.3075 86.862 21.3075C87.2291 21.3075 87.633 21.6331 88.0001 21.9948C90.3498 24.3101 92.9197 25.9018 95.6365 25.9018C98.0596 25.9018 99.5649 24.5633 99.5649 22.8992C99.5649 20.8734 97.5456 20.4393 94.2047 19.6796C90.6435 18.8114 86.6417 17.6899 86.6417 14.1085C86.6417 11.3592 89.1015 9.18863 92.8096 9.18863C94.8656 9.18863 96.4442 9.83979 97.0317 9.83979C97.6558 9.83979 97.6558 9.11628 98.3533 9.11628C98.9775 9.11628 99.3079 9.65891 99.7117 10.3463L100.923 12.2997C101.327 12.9509 101.731 13.7106 101.731 14.1085C101.731 14.5426 101.401 14.832 101.033 14.832C100.666 14.832 100.262 14.4703 99.8953 14.1447C98.0229 12.4444 95.5264 11.0336 93.14 11.0336C91.1942 11.0336 89.9827 12.0103 89.9827 13.3488C89.9827 15.1938 91.7082 15.5917 95.3428 16.4599C99.161 17.4005 102.906 18.4858 102.906 22.3566C102.906 25.6486 99.932 27.7468 95.71 27.7468C93.2134 27.7468 91.5246 26.9509 90.9372 26.9509C90.2396 26.9509 90.1662 27.8553 89.3585 27.8553Z" fill="#1A3A2E"/>
<path d="M117.502 23.5142C117.943 23.5142 118.237 23.876 118.237 24.3101C118.237 24.7442 117.98 25.2145 117.502 25.7209C116.181 27.0956 114.382 27.7468 112.399 27.7468C109.572 27.7468 107.59 26.1912 107.59 24.3463C107.59 23.5866 107.663 20.801 107.663 18.3049V11.5039H105.277C104.616 11.5039 104.212 11.2145 104.212 10.6718C104.212 10.2015 104.579 9.91214 105.167 9.65891C107.369 8.75452 108.361 7.4522 109.205 4.16021C109.535 3.21964 109.756 2.78553 110.306 2.78553C110.71 2.78553 110.967 3.07494 110.967 3.7261V9.58656H117.245C117.649 9.58656 117.869 9.76744 117.869 10.093C117.869 10.3463 117.796 10.708 117.759 10.9251C117.686 11.323 117.466 11.5039 117.098 11.5039H110.967V21.9948C110.967 24.6718 112.032 25.4677 113.537 25.4677C115.043 25.4677 115.887 24.5995 116.621 23.9845C116.841 23.7674 117.172 23.5142 117.502 23.5142Z" fill="#1A3A2E"/>
<path d="M137.754 28C132.981 28 128.869 24.708 128.869 18.7028C128.869 12.8786 133.018 8.9354 138.084 8.9354C141.792 8.9354 144.839 11.1059 144.839 12.5891C144.839 13.2765 144.472 14.3979 143.334 15.7726C142.967 16.1705 142.71 16.4238 142.343 16.4238C141.866 16.4238 141.609 16.0258 141.498 15.3385C141.021 12.7338 140.103 10.7442 137.423 10.7442C134.523 10.7442 132.393 13.4574 132.393 17.5814C132.393 22.1757 135.367 25.5039 139.075 25.5039C140.984 25.5039 142.637 24.708 143.848 23.1886C144.178 22.7907 144.435 22.646 144.729 22.646C145.133 22.646 145.427 22.9354 145.427 23.4419C145.427 23.7313 145.28 24.0568 145.096 24.3824C143.995 26.2997 141.095 28 137.754 28Z" fill="#1A3A2E"/>
<path d="M148.028 27.4574C147.441 27.4574 147.184 27.0594 147.184 26.7338C147.184 25.3592 149.497 26.4083 149.497 23.478V5.31783C149.497 3.07494 146.89 4.30491 146.89 2.89406C146.89 2.31525 147.514 1.88114 149.46 0.976744C151.332 0.108528 151.7 0 152.03 0C152.617 0 152.801 0.470285 152.801 1.26615V23.478C152.801 26.4083 155.151 25.3592 155.151 26.7338C155.151 27.0594 154.93 27.4574 154.38 27.4574C153.572 27.4574 152.471 27.3488 151.149 27.3488C149.864 27.3488 148.836 27.4574 148.028 27.4574Z" fill="#1A3A2E"/>
<path d="M175.213 22.6822C175.213 24.8889 178.224 24.3463 178.224 25.5401C178.224 26.2274 177.563 26.5891 175.25 27.1318C173.635 27.5297 173.047 27.6382 172.68 27.6382C172.019 27.6382 171.909 26.9871 171.909 26.4083V24.3101C170.734 26.1912 168.862 27.7829 165.704 27.7829C161.556 27.7829 159.573 25.0336 159.573 20.7649V14.5065C159.573 12.3359 156.636 13.168 156.636 11.8656C156.636 11.2145 157.26 10.8527 159.426 10.0568C161.299 9.36951 161.776 9.29716 162.033 9.29716C162.804 9.29716 162.877 10.0207 162.877 10.5995V20.2584C162.877 23.1525 163.685 25.1421 166.806 25.1421C169.339 25.1421 171.909 23.2972 171.909 19.6434V14.5065C171.909 12.3359 168.678 13.2403 168.678 11.8656C168.678 11.2506 169.339 10.8889 171.762 10.0207C173.524 9.40568 174.148 9.29716 174.442 9.29716C175.103 9.29716 175.213 9.94832 175.213 10.5995V22.6822Z" fill="#1A3A2E"/>
<path d="M191.703 9.0801C196.586 9.0801 200 12.6977 200 18.1602C200 24.0568 195.778 27.8191 190.748 27.8191C187.774 27.8191 186.269 26.6615 185.168 26.6615C184.103 26.6615 183.148 27.7106 182.451 27.7106C181.937 27.7106 181.643 27.3127 181.643 26.77V5.31783C181.643 3.07494 178.816 4.30491 178.816 2.89406C178.816 2.31525 179.44 1.88114 181.46 0.976744C183.295 0.108528 183.773 0 184.213 0C184.727 0 184.947 0.470285 184.947 0.940569V12.553C186.343 10.5633 188.619 9.0801 191.703 9.0801ZM190.748 25.9018C193.942 25.9018 196.512 23.7674 196.512 19.3178C196.512 14.9406 194.052 11.5762 190.454 11.5762C187.628 11.5762 184.947 13.6382 184.947 17.4005V20.0413C184.947 23.6589 187.407 25.9018 190.748 25.9018Z" fill="#1A3A2E"/>
</svg>
