<svg width="38" height="30" viewBox="0 0 38 30" fill="none" xmlns="http://www.w3.org/2000/svg">
<path d="M33.5993 0.000398629H16.7289C14.3593 0.000398629 12.4155 1.94421 12.4155 4.31378V14.6916C12.4155 17.0612 14.3593 19.005 16.7289 19.005H25.7816L32.4648 25.0232C32.5592 25.1176 32.7018 25.1658 32.8906 25.1658C32.985 25.1658 33.0794 25.1176 33.1757 25.0713C33.4126 24.9288 33.5552 24.6918 33.507 24.4086L32.6074 18.9586H33.6496C36.0192 18.9586 37.963 17.0148 37.963 14.6452L37.9611 4.31339C37.913 1.94381 35.9692 0 33.5996 0L33.5993 0.000398629ZM36.6798 14.6918C36.6798 16.3986 35.3062 17.7722 33.5993 17.7722H31.8462H31.7981H31.7037C31.6556 17.7722 31.6556 17.8203 31.6093 17.8203C31.5612 17.8203 31.5612 17.8203 31.5149 17.8685C31.4667 17.8685 31.4205 17.9166 31.4205 17.9166C31.3723 17.9647 31.3723 17.9647 31.326 18.011C31.326 18.0592 31.2779 18.0592 31.2779 18.1054C31.2298 18.1536 31.2298 18.1999 31.2298 18.248V18.3424C31.2298 18.3905 31.1817 18.3905 31.1817 18.4368V18.5312V18.5794L31.9407 23.0334L26.4442 17.9146C26.3961 17.8665 26.3498 17.8665 26.3017 17.8202L26.2535 17.7721C26.1591 17.724 26.111 17.724 26.0166 17.724L16.7288 17.7258C15.0219 17.7258 13.6483 16.3522 13.6483 14.6454V4.31354C13.6483 2.60669 15.0219 1.23309 16.7288 1.23309H33.6011C35.308 1.23309 36.6816 2.60669 36.6816 4.31354L36.6798 14.6918Z" fill="#606C38"/>
<path d="M3.88524 23.7929H4.35916L3.45948 29.2429C3.41135 29.4799 3.55389 29.765 3.79085 29.9056C3.88526 29.9538 3.97967 30.0001 4.07594 30.0001C4.21848 30.0001 4.36102 29.9519 4.50172 29.8575L11.1849 23.8393H18.8618C20.9 23.8393 22.5587 22.275 22.7476 20.2849H16.7293C13.6489 20.2849 11.185 17.7728 11.185 14.7406V6.82666H3.88573C1.75311 6.82666 0 8.57977 0 10.7124V19.9054C0 22.038 1.75311 23.793 3.88573 23.793L3.88524 23.7929Z" fill="#606C38"/>
</svg>
