<svg width="24" height="21" viewBox="0 0 24 21" fill="none" xmlns="http://www.w3.org/2000/svg">
<path d="M19.7419 0H4.25806C3.12876 0 2.0457 0.450693 1.24716 1.25293C0.448616 2.05517 0 3.14324 0 4.27778V16.7222C0 17.8568 0.448616 18.9448 1.24716 19.7471C2.0457 20.5493 3.12876 21 4.25806 21H19.7419C20.8712 21 21.9543 20.5493 22.7528 19.7471C23.5514 18.9448 24 17.8568 24 16.7222V4.27778C24 3.14324 23.5514 2.05517 22.7528 1.25293C21.9543 0.450693 20.8712 0 19.7419 0ZM4.25806 2.33333H19.7419C20.2553 2.33333 20.7476 2.53819 21.1105 2.90285C21.4735 3.2675 21.6774 3.76208 21.6774 4.27778V4.78722L14.1329 10.2006C13.5113 10.6454 12.7671 10.8844 12.0039 10.8844C11.2407 10.8844 10.4965 10.6454 9.87484 10.2006L2.32258 4.78722V4.27778C2.32258 3.76208 2.5265 3.2675 2.88947 2.90285C3.25244 2.53819 3.74474 2.33333 4.25806 2.33333ZM19.7419 18.6667H4.25806C3.74474 18.6667 3.25244 18.4618 2.88947 18.0972C2.5265 17.7325 2.32258 17.2379 2.32258 16.7222V7.65722L8.51613 12.1022C9.5326 12.8319 10.7507 13.2242 12 13.2242C13.2493 13.2242 14.4674 12.8319 15.4839 12.1022L21.6774 7.65722V16.7222C21.6774 17.2379 21.4735 17.7325 21.1105 18.0972C20.7476 18.4618 20.2553 18.6667 19.7419 18.6667Z" fill="#F5F0E8"/>
</svg>
