<svg width="39" height="30" viewBox="0 0 39 30" fill="none" xmlns="http://www.w3.org/2000/svg">
<g clip-path="url(#clip0_35_546)">
<path d="M24.9901 0C24.609 0.686656 24.2668 1.397 23.9557 2.12313C21.0001 1.67325 17.9902 1.67325 15.0268 2.12313C14.7235 1.397 14.3735 0.686656 13.9924 0C11.2158 0.481469 8.50909 1.32597 5.94245 2.51775C0.855795 10.1658 -0.520864 17.6164 0.163586 24.9645C3.14245 27.1981 6.47911 28.9029 10.0335 29.9921C10.8346 28.9029 11.5424 27.7427 12.1491 26.5351C10.998 26.101 9.88575 25.5564 8.82021 24.925C9.1002 24.7198 9.37242 24.5067 9.63686 24.3015C15.8824 27.2849 23.1157 27.2849 29.369 24.3015C29.6334 24.5225 29.9057 24.7356 30.1856 24.925C29.1201 25.5643 28.0079 26.101 26.849 26.543C27.4557 27.7506 28.1634 28.9108 28.9646 30C32.5189 28.9108 35.8555 27.2139 38.8346 24.9803C39.6433 16.4562 37.4501 9.06866 33.0399 2.52566C30.4812 1.33387 27.7746 0.489344 24.9979 0.0157813L24.9901 0ZM13.0202 20.442C11.0991 20.442 9.50466 18.674 9.50466 16.4878C9.50466 14.3015 11.0369 12.5257 13.0124 12.5257C14.988 12.5257 16.559 14.3094 16.5279 16.4878C16.4968 18.6662 14.9802 20.442 13.0202 20.442ZM25.9779 20.442C24.049 20.442 22.4701 18.674 22.4701 16.4878C22.4701 14.3015 24.0024 12.5257 25.9779 12.5257C27.9535 12.5257 29.5168 14.3094 29.4856 16.4878C29.4545 18.6662 27.9379 20.442 25.9779 20.442Z" fill="#F5F0E8"/>
</g>
<defs>
<clipPath id="clip0_35_546">
<rect width="39" height="30" fill="white"/>
</clipPath>
</defs>
</svg>
