<svg width="24" height="24" viewBox="0 0 24 24" fill="none" xmlns="http://www.w3.org/2000/svg">
<g clip-path="url(#clip0_35_500)">
<path d="M7.0301 0.0840014C5.7533 0.144241 4.88138 0.348001 4.11914 0.647521C3.33026 0.954961 2.66162 1.36752 1.99634 2.0352C1.33106 2.70288 0.921379 3.372 0.616099 4.16208C0.320659 4.926 0.120499 5.79864 0.0640995 7.07616C0.00769946 8.35368 -0.00478054 8.76432 0.00145946 12.023C0.00769946 15.2818 0.0220995 15.6902 0.0840195 16.9704C0.144979 18.247 0.348019 19.1186 0.647539 19.8811C0.955459 20.67 1.36754 21.3384 2.03546 22.0039C2.70338 22.6694 3.37202 23.0782 4.16402 23.3839C4.92722 23.6789 5.8001 23.88 7.07738 23.9359C8.35466 23.9918 8.76578 24.0048 12.0235 23.9986C15.2813 23.9923 15.6915 23.9779 16.9714 23.9172C18.2513 23.8565 19.1184 23.652 19.8811 23.3539C20.67 23.0453 21.3389 22.6339 22.0039 21.9658C22.669 21.2976 23.0784 20.628 23.3835 19.8374C23.6791 19.0742 23.88 18.2014 23.9355 16.925C23.9914 15.6442 24.0046 15.2352 23.9983 11.977C23.9921 8.71872 23.9775 8.31024 23.9167 7.03056C23.856 5.75088 23.6527 4.88184 23.3535 4.11888C23.0451 3.33 22.6335 2.66208 21.9658 1.99608C21.2981 1.33008 20.628 0.920881 19.8377 0.616561C19.074 0.321121 18.2016 0.119761 16.9243 0.0645614C15.6471 0.00936143 15.2359 -0.00479857 11.977 0.00144143C8.71802 0.00768143 8.31002 0.0216014 7.0301 0.0840014ZM7.17026 21.7771C6.00026 21.7262 5.36498 21.5318 4.94162 21.3691C4.38098 21.1531 3.98162 20.892 3.5597 20.4742C3.13778 20.0563 2.87858 19.6555 2.6597 19.0961C2.4953 18.6727 2.2973 18.0382 2.24258 16.8682C2.18306 15.6036 2.17058 15.2239 2.16362 12.0202C2.15666 8.8164 2.1689 8.4372 2.22434 7.17216C2.27426 6.00312 2.46986 5.36712 2.63234 4.944C2.84834 4.38264 3.1085 3.984 3.5273 3.56232C3.9461 3.14064 4.3457 2.88096 4.90562 2.66208C5.3285 2.49696 5.96306 2.30064 7.13258 2.24496C8.3981 2.18496 8.7773 2.17296 11.9806 2.166C15.1839 2.15904 15.564 2.17104 16.83 2.22672C17.9991 2.2776 18.6353 2.47128 19.0579 2.63472C19.6188 2.85072 20.0179 3.11016 20.4396 3.52968C20.8613 3.9492 21.1212 4.34736 21.3401 4.90848C21.5055 5.33016 21.7018 5.96448 21.757 7.13472C21.8172 8.40024 21.8309 8.77968 21.8367 11.9827C21.8424 15.1858 21.8311 15.5662 21.7757 16.8307C21.7246 18.0007 21.5307 18.6362 21.3677 19.0601C21.1517 19.6205 20.8913 20.0201 20.4723 20.4415C20.0532 20.863 19.6541 21.1226 19.0939 21.3415C18.6715 21.5064 18.0363 21.7032 16.8677 21.7589C15.6022 21.8184 15.223 21.8309 12.0185 21.8378C8.81402 21.8448 8.43602 21.8318 7.1705 21.7771M16.9529 5.58648C16.9534 5.87131 17.0383 6.14959 17.197 6.38615C17.3556 6.6227 17.5808 6.80689 17.8442 6.91543C18.1075 7.02396 18.3971 7.05197 18.6764 6.9959C18.9556 6.93984 19.212 6.80221 19.413 6.60044C19.614 6.39867 19.7507 6.14182 19.8058 5.86236C19.8608 5.5829 19.8317 5.2934 19.7222 5.03047C19.6127 4.76753 19.4277 4.54298 19.1906 4.3852C18.9534 4.22742 18.6748 4.14351 18.39 4.14408C18.0082 4.14484 17.6423 4.29722 17.3728 4.56771C17.1033 4.8382 16.9523 5.20465 16.9529 5.58648ZM5.8385 12.012C5.84522 15.4152 8.60906 18.1678 12.0115 18.1613C15.414 18.1548 18.1685 15.3912 18.162 11.988C18.1555 8.5848 15.391 5.83152 11.988 5.83824C8.58506 5.84496 5.83202 8.60928 5.8385 12.012ZM7.99994 12.0077C7.99837 11.2165 8.23145 10.4427 8.66968 9.78403C9.10791 9.12535 9.73162 8.61142 10.4619 8.30721C11.1923 8.00301 11.9964 7.92221 12.7726 8.07501C13.5489 8.22782 14.2624 8.60738 14.8229 9.16569C15.3834 9.724 15.7658 10.436 15.9217 11.2116C16.0776 11.9873 15.9999 12.7917 15.6986 13.5232C15.3973 14.2547 14.8859 14.8805 14.2289 15.3213C13.572 15.7621 12.7991 15.9983 12.0079 15.9998C11.4826 16.0009 10.9622 15.8986 10.4765 15.6985C9.99076 15.4985 9.54918 15.2047 9.17699 14.834C8.8048 14.4633 8.50929 14.0229 8.30733 13.5379C8.10537 13.053 8.00092 12.533 7.99994 12.0077Z" fill="#F5F0E8"/>
</g>
<defs>
<clipPath id="clip0_35_500">
<rect width="24" height="24" fill="white"/>
</clipPath>
</defs>
</svg>
